<?xml version="1.0" encoding="UTF-8" standalone="no"?><!DOCTYPE svg PUBLIC "-//W3C//DTD SVG 1.1//EN" "http://www.w3.org/Graphics/SVG/1.1/DTD/svg11.dtd"><svg width="100%" height="100%" viewBox="0 0 61 61" version="1.1" xmlns="http://www.w3.org/2000/svg" xmlns:xlink="http://www.w3.org/1999/xlink" xml:space="preserve" xmlns:serif="http://www.serif.com/" style="fill-rule:evenodd;clip-rule:evenodd;stroke-linejoin:round;stroke-miterlimit:1.41421;"><g id="outlined"><path d="M32.33,11.975c-0.256,-0.731 -0.411,-1.496 -0.495,-2.223c-0.144,-1.236 0.164,-2.58 1.132,-3.433c1.071,-0.945 2.582,-1.157 3.957,-1.177c0.161,0 0.161,0 0.321,0.002c2.895,0.067 5.735,0.696 8.416,1.762c0.607,0.292 0.753,1.051 0.28,1.672c-1.895,2.445 -4.008,4.827 -6.764,6.234c-1.474,0.752 -3.332,1.084 -4.798,0.061c-0.422,-0.294 -0.78,-0.651 -1.084,-1.051c-1.307,1.727 -2.141,3.687 -1.866,5.814c0.758,-0.38 1.922,-0.914 2.991,-1.192c1.067,-0.278 2.164,-0.398 3.271,-0.394c5.272,0.063 10.638,2.025 13.335,6.79c3.472,6.133 2.279,13.828 0.074,20.117c-2.465,7.03 -7.365,14.334 -14.483,13.82c-2.094,-0.151 -4.124,-0.87 -5.916,-1.991c0,0 -5.711,2.861 -9.606,1.578c-4.105,-1.352 -6.912,-5.089 -8.851,-8.733c-2.745,-5.156 -4.234,-11.059 -4.008,-16.839c0.176,-4.482 1.794,-9.176 5.571,-11.908c4.447,-3.217 10.798,-3.808 15.618,-1.464c-0.098,-2.622 1.151,-5.242 2.905,-7.445Zm-8.699,8.075c-4.5,0.054 -9.176,1.616 -11.529,5.634c-2.655,4.535 -2.189,10.215 -1.027,15.13c1.224,5.175 3.464,10.346 7.383,13.721c2.245,1.934 5.49,2.786 8.619,1.737c1.073,-0.359 2.077,-0.891 3.003,-1.539c0,0 0.587,-0.364 1.508,0.246c2.08,1.351 4.614,2.161 7.039,1.729c3.791,-0.677 6.401,-4.061 8.198,-7.166c4.995,-8.631 6.658,-20.9 0.211,-26.476c-4.338,-3.753 -11.324,-4.078 -15.81,-0.94c0,0 -0.587,0.363 -1.507,-0.246c-1.729,-1.124 -3.745,-1.798 -5.802,-1.83c-0.143,0 -0.143,0 -0.286,0Zm-10.692,10.922c0.487,0.055 0.863,0.427 0.923,0.914c0.01,0.221 -0.006,-0.022 0.014,0.818c0.171,5.212 1.629,10.365 4.201,14.9c0,0 0.258,0.673 -0.081,1.108c-0.406,0.521 -1.232,0.567 -1.659,-0.122c-0.128,-0.226 -0.128,-0.226 -0.255,-0.454c-2.698,-4.962 -4.19,-10.546 -4.217,-16.162c0,0 -0.001,-1.039 1.074,-1.002Zm21.744,-18.741c0.017,0.029 0.033,0.058 0.049,0.086c1.006,1.727 3.682,0.947 5.795,-0.862c1.106,-0.946 2.104,-2.012 3.043,-3.122l0.007,-0.007c-2.164,-0.654 -4.398,-1.187 -6.637,-1.184c-0.216,0.003 -0.432,0.01 -0.647,0.027c-0.159,0.013 -0.318,0.031 -0.476,0.055c-0.11,0.017 -0.219,0.037 -0.328,0.06c-0.538,0.118 -1.133,0.331 -1.446,0.821c-0.399,0.623 -0.378,1.413 -0.185,2.172c0.492,-0.486 1.001,-0.94 1.514,-1.353c0,0 0.199,-0.225 0.669,-0.221c0.801,0.06 1.235,1.147 0.636,1.735c-0.141,0.121 -0.001,-0.005 -0.519,0.428c-0.505,0.43 -1.002,0.885 -1.475,1.365Z" style="fill-rule:nonzero;"/></g></svg>