<?xml version="1.0" encoding="UTF-8" standalone="no"?><!DOCTYPE svg PUBLIC "-//W3C//DTD SVG 1.1//EN" "http://www.w3.org/Graphics/SVG/1.1/DTD/svg11.dtd"><svg width="100%" height="100%" viewBox="0 0 61 61" version="1.1" xmlns="http://www.w3.org/2000/svg" xmlns:xlink="http://www.w3.org/1999/xlink" xml:space="preserve" xmlns:serif="http://www.serif.com/" style="fill-rule:evenodd;clip-rule:evenodd;stroke-linejoin:round;stroke-miterlimit:1.41421;"><g id="WWW"><path d="M38.908,30.446c0.353,0.054 0.376,0.108 0.525,0.218l15.3,12.406c0.73,0.652 0.393,2.004 -1.199,1.797c-0.342,-0.044 -2.884,0.191 -4.313,0.411l4.513,8.858c0.231,0.512 0.036,1.073 -0.437,1.344l-3.564,1.816c-0.489,0.22 -1.059,0.062 -1.345,-0.437l-4.513,-8.857c-1.159,1.169 -2.451,2.75 -3.236,3.719c-0.393,0.485 -1.659,0.732 -1.79,-0.558l-1.044,-19.67c-0.003,-0.618 0.489,-1.082 1.103,-1.047Zm1.801,18.035c0.138,-0.16 0.278,-0.318 0.418,-0.476c0.122,-0.135 0.244,-0.27 0.366,-0.405c1.114,-1.223 2.679,-3.233 3.56,-1.692l4.663,9.152l1.782,-0.908l-4.663,-9.152c-0.506,-1.725 1.441,-1.651 4.268,-1.969l0.366,-0.033l-11.548,-9.364c0.263,4.949 0.526,9.898 0.788,14.847Zm16.3,-42.511c1.537,0.058 2.864,1.375 2.923,2.922c0.072,5.717 0.072,11.436 0,17.154c-0.059,1.535 -1.375,2.863 -2.923,2.922c-17.383,0.22 -34.77,0.22 -52.154,0c-1.535,-0.058 -2.863,-1.374 -2.922,-2.922c-0.072,-5.718 -0.072,-11.437 0,-17.154c0.059,-1.536 1.375,-2.863 2.922,-2.922c17.384,-0.22 34.771,-0.22 52.154,0Zm-52.07,1.999c-0.528,0.007 -0.986,0.45 -1.006,0.974c-0.072,5.692 -0.216,11.389 0.001,17.078c0.032,0.502 0.465,0.928 0.972,0.947c17.358,0.22 34.732,0.66 52.079,-0.001c0.504,-0.032 0.928,-0.467 0.947,-0.972c0.072,-5.692 0.216,-11.39 -0.001,-17.078c-0.032,-0.504 -0.467,-0.928 -0.972,-0.948c-17.339,-0.219 -34.68,0 -52.02,0Zm26.027,12.667c-0.355,0.756 -0.708,1.513 -1.056,2.272c-0.331,0.67 -1.386,0.745 -1.786,0.066c-1.447,-2.825 -2.731,-5.73 -4.096,-8.596c-0.295,-0.669 0.108,-1.47 0.982,-1.427c0.354,0.039 0.66,0.248 0.824,0.567l3.149,6.611l0.859,-1.874c-0.603,-1.293 -1.201,-2.589 -1.814,-3.877c-0.295,-0.669 0.115,-1.47 0.982,-1.427c0.354,0.039 0.66,0.248 0.824,0.567l1.11,2.332l1.086,-2.37c0.49,-0.863 2.244,-0.372 1.816,0.831c-0.56,1.323 -1.155,2.631 -1.761,3.934l0.898,1.884l3.047,-6.649c0.471,-0.829 2.282,-0.478 1.816,0.831c-1.229,2.902 -2.624,5.732 -3.936,8.597c-0.336,0.68 -1.392,0.735 -1.786,0.066c-0.396,-0.774 -0.781,-1.555 -1.158,-2.338Zm17,0c-0.355,0.756 -0.708,1.513 -1.056,2.272c-0.336,0.68 -1.392,0.735 -1.786,0.066c-1.447,-2.825 -2.731,-5.73 -4.096,-8.596c-0.295,-0.669 0.108,-1.47 0.982,-1.427c0.354,0.039 0.66,0.248 0.824,0.567l3.149,6.611l0.859,-1.874c-0.603,-1.293 -1.201,-2.589 -1.814,-3.877c-0.295,-0.669 0.115,-1.47 0.982,-1.427c0.354,0.039 0.66,0.248 0.824,0.567l1.11,2.332l1.086,-2.37c0.49,-0.863 2.244,-0.372 1.816,0.831c-0.56,1.323 -1.155,2.631 -1.761,3.934l0.898,1.884l3.047,-6.649c0.49,-0.863 2.244,-0.372 1.816,0.831c-1.229,2.902 -2.624,5.732 -3.936,8.597c-0.336,0.68 -1.392,0.735 -1.786,0.066c-0.396,-0.774 -0.781,-1.555 -1.158,-2.338Zm-34,0c-0.355,0.756 -0.708,1.513 -1.056,2.272c-0.336,0.68 -1.392,0.735 -1.786,0.066c-1.447,-2.825 -2.731,-5.73 -4.096,-8.596c-0.295,-0.669 0.108,-1.47 0.982,-1.427c0.354,0.039 0.66,0.248 0.824,0.567l3.149,6.611l0.859,-1.874c-0.603,-1.293 -1.201,-2.589 -1.814,-3.877c-0.295,-0.669 0.115,-1.47 0.982,-1.427c0.354,0.039 0.66,0.248 0.824,0.567l1.11,2.332l1.086,-2.37c0.492,-0.866 2.218,-0.299 1.816,0.831c-0.56,1.323 -1.155,2.631 -1.761,3.934l0.898,1.884l3.047,-6.649c0.501,-0.881 2.221,-0.307 1.816,0.831c-1.229,2.902 -2.624,5.732 -3.936,8.597c-0.336,0.68 -1.392,0.735 -1.786,0.066c-0.396,-0.774 -0.781,-1.555 -1.158,-2.338Z" style="fill-rule:nonzero;"/></g></svg>