<?xml version="1.0" encoding="UTF-8" standalone="no"?><!DOCTYPE svg PUBLIC "-//W3C//DTD SVG 1.1//EN" "http://www.w3.org/Graphics/SVG/1.1/DTD/svg11.dtd"><svg width="100%" height="100%" viewBox="0 0 61 61" version="1.1" xmlns="http://www.w3.org/2000/svg" xmlns:xlink="http://www.w3.org/1999/xlink" xml:space="preserve" xmlns:serif="http://www.serif.com/" style="fill-rule:evenodd;clip-rule:evenodd;stroke-linejoin:round;stroke-miterlimit:1.41421;"><g id="outlined"><path d="M48.803,51.851l-7.761,-15.365c-0.312,-0.683 0.023,-1.488 0.975,-1.447c0.349,0.042 0.64,0.238 0.811,0.546l7.828,15.498c0.181,-0.025 0.366,-0.038 0.554,-0.038c2.207,0 3.998,1.791 3.998,3.998c0,2.206 -1.791,3.998 -3.998,3.998c-2.206,0 -3.998,-1.792 -3.998,-3.998c0,-1.303 0.625,-2.461 1.591,-3.192Zm2.407,1.207c1.096,0 1.985,0.889 1.985,1.985c0,1.095 -0.889,1.985 -1.985,1.985c-1.095,0 -1.985,-0.89 -1.985,-1.985c0,-1.096 0.89,-1.985 1.985,-1.985Zm-38.585,-15.276c2.127,-1.285 4.305,-2.485 6.453,-3.734c0.172,-0.094 0.357,-0.139 0.552,-0.135c0.856,0.065 1.232,1.329 0.498,1.836c-2.167,1.338 -4.398,2.57 -6.604,3.843c0.054,0.263 0.083,0.535 0.083,0.813c0,2.207 -1.792,3.998 -3.998,3.998c-2.207,0 -3.998,-1.791 -3.998,-3.998c0,-2.206 1.791,-3.998 3.998,-3.998c1.203,0 2.283,0.533 3.016,1.375Zm-3.016,0.638c1.096,0 1.985,0.89 1.985,1.985c0,1.096 -0.889,1.985 -1.985,1.985c-1.096,0 -1.985,-0.889 -1.985,-1.985c0,-1.095 0.889,-1.985 1.985,-1.985Zm21.784,-26.035c-0.268,-1.121 -0.052,-2.299 0.86,-2.997c0.713,-0.545 1.425,-0.649 2.474,-0.637c0.366,0.008 0.73,0.038 1.092,0.085c0.295,0.039 0.589,0.088 0.881,0.145c0.274,0.054 0.546,0.114 0.817,0.181c0.195,0.047 0.388,0.098 0.581,0.151c0.235,0.065 0.469,0.134 0.701,0.206c0.876,0.274 1.588,0.975 0.739,2.035c-1.801,2.198 -4.428,4.925 -6.748,3.081c-0.102,-0.081 -0.2,-0.168 -0.294,-0.261c-0.349,0.519 -0.538,1.148 -0.515,1.817c2.774,-1.026 8.402,-0.883 10.641,3.456c2.732,5.294 0.237,12.223 -2.993,15.834c-1.954,2.185 -5.272,3.251 -8.4,1.484c0,0 -2.72,1.439 -5.019,0.805c-5.406,-1.492 -7.332,-8.61 -7.419,-13.164c-0.066,-3.475 1.607,-7.306 5.255,-8.529c1.224,-0.411 2.525,-0.564 3.804,-0.524c0.677,0.034 1.469,0.261 2.114,0.49c-0.016,-1.303 0.542,-2.696 1.429,-3.658Zm-0.838,6c-0.213,-0.074 -0.457,-0.175 -0.735,-0.31c-0.427,-0.207 -0.88,-0.359 -1.347,-0.445c-4.018,-0.741 -8.157,2.612 -7.614,8.07c0.585,5.871 4.881,12.602 9.784,9.242c0,0 0.298,-0.241 0.794,-0.148c0.446,0.127 0.418,0.207 0.61,0.329c5.01,3.067 11.486,-6.083 9.215,-13.522c-1.116,-3.656 -6.379,-5.172 -9.489,-3.041c0,0 -0.171,0.065 -0.577,-0.004c-0.217,0.069 -0.443,0.032 -0.641,-0.171Zm-7.396,4.218c0.531,0.069 0.668,0.673 0.688,1.255c0.114,2.687 0.962,5.269 2.227,7.655c0,0 0.112,0.309 0.046,0.537c-0.176,0.609 -1.054,0.731 -1.508,-0.077c-1.455,-2.644 -2.36,-5.659 -2.273,-8.67c0,0 0.089,-0.745 0.82,-0.7Zm26.21,-10.931c-0.493,-0.664 -0.784,-1.487 -0.784,-2.376c0,-2.207 1.792,-3.998 3.998,-3.998c2.207,0 3.998,1.791 3.998,3.998c0,2.206 -1.791,3.998 -3.998,3.998c-0.579,0 -1.13,-0.124 -1.628,-0.346c-2.046,1.973 -4.175,3.858 -6.259,5.791c-0.762,0.672 -2.251,-0.505 -1.397,-1.43c1.975,-1.929 4.038,-3.767 6.07,-5.637Zm-35.38,1.23c-0.715,0.667 -1.674,1.075 -2.727,1.075c-2.207,0 -3.998,-1.791 -3.998,-3.998c0,-2.206 1.791,-3.998 3.998,-3.998c2.206,0 3.998,1.792 3.998,3.998c0,0.42 -0.065,0.825 -0.185,1.206c1.645,1.089 3.268,2.213 4.868,3.37c0.764,0.608 0.002,2.316 -1.133,1.645c-1.629,-1.067 -3.237,-2.167 -4.821,-3.298Zm20.284,0.164c0.756,0.133 1.913,-0.797 2.946,-1.892c0,0 -1.671,-0.425 -2.659,-0.424c-0.483,0.007 -1.171,-0.193 -1.218,0.47c0.206,-0.041 0.418,-0.06 0.633,-0.054c0.895,0.067 1.242,1.336 0.298,1.9Zm-23.011,-5.072c1.095,0 1.985,0.89 1.985,1.985c0,1.096 -0.89,1.985 -1.985,1.985c-1.096,0 -1.985,-0.889 -1.985,-1.985c0,-1.095 0.889,-1.985 1.985,-1.985Zm41.321,-0.683c1.096,0 1.985,0.889 1.985,1.985c0,1.095 -0.889,1.985 -1.985,1.985c-1.096,0 -1.985,-0.89 -1.985,-1.985c0,-1.096 0.889,-1.985 1.985,-1.985Z"/></g></svg>