<?xml version="1.0" encoding="UTF-8" standalone="no"?><!DOCTYPE svg PUBLIC "-//W3C//DTD SVG 1.1//EN" "http://www.w3.org/Graphics/SVG/1.1/DTD/svg11.dtd"><svg width="100%" height="100%" viewBox="0 0 61 61" version="1.1" xmlns="http://www.w3.org/2000/svg" xmlns:xlink="http://www.w3.org/1999/xlink" xml:space="preserve" xmlns:serif="http://www.serif.com/" style="fill-rule:evenodd;clip-rule:evenodd;stroke-linejoin:round;stroke-miterlimit:1.41421;"><g id="outlined"><path d="M55.153,54.282l-50,0c-0.776,-0.051 -0.963,-0.443 -1,-1l0,-31c0.051,-0.776 0.442,-0.964 1,-1l50,0c0.044,0.002 0.087,0.005 0.131,0.008c0.7,0.139 0.833,0.441 0.869,0.992l0,31c-0.035,0.541 -0.272,0.952 -1,1Zm-1,-23l-48,0l0,21l48,0l0,-21Zm-38,13l8,0l0,0l2,0l0,0l8,0l0,0l2,0l0,0l8,0l0,0l2,0l0,0l6,0l0,2l-6,0l0,4l-2,0l0,-4l-8,0l0,4l-2,0l0,-4l-8,0l0,4l-2,0l0,-4l-8,0l0,4l-2,0l0,-4l-6,0l0,-2l6,0l0,0l2,0l0,0Zm13,-6l-21,0l0,-2l21,0l0,2Zm0,-3l-21,0l0,-2l21,0l0,2Zm-20.737,-12l-2.263,0l0,6l4.113,0c-0.648,-1.99 -1.234,-4 -1.85,-6Zm10,0l-7.875,0c0.647,1.989 1.233,3.999 1.849,6l7.876,0c-0.648,-1.99 -1.234,-4 -1.85,-6Zm10,0l-7.875,0c0.647,1.989 1.233,3.999 1.849,6l7.876,0c-0.648,-1.99 -1.234,-4 -1.85,-6Zm10,0l-7.875,0c0.647,1.989 1.233,3.999 1.849,6l7.876,0c-0.648,-1.99 -1.234,-4 -1.85,-6Zm10,0l-7.875,0c0.647,1.989 1.233,3.999 1.849,6l7.876,0c-0.648,-1.99 -1.234,-4 -1.85,-6Zm5.737,0l-3.612,0c0.647,1.989 1.233,3.999 1.849,6l1.763,0l0,-6Zm-5.833,-17.62l5.997,-0.524c0.044,0.005 0.087,0.009 0.13,0.014c0.641,0.157 0.728,0.282 0.823,0.898l0.697,7.969c0.017,0.778 -0.356,0.999 -0.909,1.084l-49.81,4.357c-0.777,0.017 -0.998,-0.356 -1.083,-0.909l-0.697,-7.969c-0.012,-0.542 0.188,-0.973 0.909,-1.084l23.901,-2.086c0.019,-0.003 0.039,-0.004 0.059,-0.006l9.867,-0.861c0.043,-0.007 0.086,-0.011 0.131,-0.012l9.809,-0.856c0.056,-0.01 0.115,-0.015 0.176,-0.015Zm-40.518,5.544l-2.255,0.198l0.523,5.977l4.097,-0.359c-0.818,-1.926 -1.577,-3.877 -2.365,-5.816Zm9.962,-0.871l-7.846,0.686c0.818,1.926 1.577,3.877 2.365,5.816l7.846,-0.686c-0.818,-1.926 -1.577,-3.877 -2.365,-5.816Zm9.962,-0.872l-7.846,0.687c0.818,1.926 1.577,3.877 2.365,5.816l7.846,-0.687c-0.818,-1.926 -1.577,-3.877 -2.365,-5.816Zm9.962,-0.871l-7.846,0.686c0.818,1.926 1.577,3.877 2.365,5.816l7.846,-0.686c-0.818,-1.926 -1.577,-3.877 -2.365,-5.816Zm9.962,-0.872l-7.846,0.687c0.817,1.926 1.577,3.877 2.365,5.816l7.846,-0.687c-0.818,-1.926 -1.577,-3.877 -2.365,-5.816Zm2.115,-0.185c0.818,1.926 1.578,3.877 2.366,5.816l1.757,-0.154l-0.523,-5.977l-3.6,0.315Z" style="fill-rule:nonzero;"/></g></svg>